<?xml version="1.0" encoding="UTF-8"?>
<svg xmlns="http://www.w3.org/2000/svg" xmlns:xlink="http://www.w3.org/1999/xlink" width="1000pt" height="1000pt" viewBox="0 0 1000 1000">
<path fill-rule="nonzero" fill="rgb(6.278992%, 5.741882%, 5.058289%)" fill-opacity="1" d="M 218.894531 830.609375 C 221.089844 825.625 224.035156 821.28125 227.757812 817.550781 C 231.480469 813.8125 235.824219 810.875 240.777344 808.742188 C 245.746094 806.617188 251.054688 805.546875 256.730469 805.546875 C 267.949219 805.546875 277.574219 809.578125 285.617188 817.636719 L 300.140625 803.058594 C 294.472656 797.375 287.941406 792.929688 280.5625 789.734375 C 273.167969 786.523438 265.238281 784.941406 256.730469 784.941406 C 248.226562 784.941406 240.25 786.5625 232.804688 789.820312 C 225.367188 793.078125 218.832031 797.519531 213.234375 803.152344 C 207.605469 808.78125 203.179688 815.347656 199.941406 822.878906 C 196.675781 830.402344 195.066406 838.308594 195.066406 846.601562 L 215.621094 846.601562 C 215.621094 840.917969 216.707031 835.589844 218.894531 830.609375 "/>
<path fill-rule="nonzero" fill="rgb(6.278992%, 5.741882%, 5.058289%)" fill-opacity="1" d="M 256.730469 887.65625 C 253.582031 887.65625 250.542969 887.320312 247.597656 886.65625 L 247.597656 907.589844 C 250.578125 908.050781 253.621094 908.265625 256.730469 908.265625 C 265.226562 908.265625 273.175781 906.667969 280.5625 903.472656 C 287.941406 900.28125 294.472656 895.835938 300.140625 890.136719 L 285.617188 875.742188 C 277.464844 883.675781 267.820312 887.65625 256.730469 887.65625 "/>
<path fill-rule="nonzero" fill="rgb(6.278992%, 5.741882%, 5.058289%)" fill-opacity="1" d="M 645.988281 846.601562 L 604.875 846.421875 L 604.875 805.546875 L 645.988281 805.546875 C 651.535156 805.546875 656.316406 807.570312 660.34375 811.59375 C 664.34375 815.621094 666.371094 820.425781 666.371094 825.972656 C 666.371094 831.671875 664.34375 836.542969 660.34375 840.566406 C 656.316406 844.589844 651.535156 846.601562 645.988281 846.601562 M 679.652344 849.261719 C 684.492188 842.289062 686.921875 834.527344 686.921875 825.972656 C 686.921875 814.730469 682.902344 805.082031 674.867188 797.03125 C 666.832031 788.964844 657.203125 784.925781 645.988281 784.925781 L 584.496094 784.925781 L 584.496094 867.21875 L 639.601562 867.21875 L 663.351562 908.265625 L 686.921875 908.265625 L 661.578125 864.007812 C 668.90625 861.046875 674.929688 856.128906 679.652344 849.261719 "/>
<path fill-rule="nonzero" fill="rgb(6.278992%, 5.741882%, 5.058289%)" fill-opacity="1" d="M 810.089844 805.546875 L 810.089844 784.925781 L 707.484375 784.925781 L 707.484375 805.546875 L 748.59375 805.546875 L 748.59375 867.222656 L 769.148438 867.222656 L 769.148438 805.546875 Z M 810.089844 805.546875 "/>
<path fill-rule="nonzero" fill="rgb(6.278992%, 5.741882%, 5.058289%)" fill-opacity="1" d="M 330.617188 836.464844 L 330.617188 856.914062 L 383.730469 856.914062 L 383.730469 836.480469 L 350.996094 836.480469 L 350.996094 836.464844 Z M 330.617188 836.464844 "/>
<path fill-rule="nonzero" fill="rgb(6.278992%, 5.741882%, 5.058289%)" fill-opacity="1" d="M 330.617188 908.265625 L 412.476562 908.265625 L 412.476562 887.65625 L 350.996094 887.65625 L 350.996094 887.601562 L 330.617188 887.601562 Z M 330.617188 908.265625 "/>
<path fill-rule="nonzero" fill="rgb(6.278992%, 5.741882%, 5.058289%)" fill-opacity="1" d="M 354.339844 805.546875 L 412.484375 805.546875 L 412.484375 784.925781 L 330.617188 784.925781 L 330.617188 805.546875 Z M 354.339844 805.546875 "/>
<path fill-rule="nonzero" fill="rgb(6.278992%, 5.741882%, 5.058289%)" fill-opacity="1" d="M 541.097656 908.265625 L 564.9375 908.265625 L 535.1875 841 L 512.34375 841 L 522.929688 867.21875 L 480.003906 867.21875 L 490.609375 841 L 467.753906 841 L 438.003906 908.265625 L 461.851562 908.265625 L 471.097656 887.359375 L 531.847656 887.359375 Z M 541.097656 908.265625 "/>
<path fill-rule="nonzero" fill="rgb(13.729858%, 12.159729%, 12.548828%)" fill-opacity="1" d="M 457.839844 660.996094 C 457.839844 679.1875 474.578125 689.140625 494.519531 689.140625 L 588.753906 689.140625 L 588.753906 666.796875 L 513.925781 666.796875 C 510.5625 666.796875 505.535156 665.882812 505.535156 659.894531 L 505.535156 633.4375 L 576.890625 633.4375 L 576.890625 616.949219 L 505.535156 616.949219 L 505.535156 584.78125 L 579.53125 584.78125 C 588.277344 583.617188 588.753906 579.015625 588.753906 567.847656 L 588.753906 564.652344 L 457.839844 564.652344 Z M 457.839844 660.996094 "/>
<path fill-rule="nonzero" fill="rgb(13.729858%, 12.159729%, 12.548828%)" fill-opacity="1" d="M 397.710938 649.535156 C 397.710938 666.828125 390.027344 666.796875 372.375 666.796875 L 335.964844 666.796875 L 335.964844 584.78125 L 372.375 584.78125 C 390.589844 584.78125 397.792969 585.222656 397.792969 603.597656 C 397.792969 605.21875 397.710938 647.191406 397.710938 649.535156 M 388.007812 564.652344 L 292.734375 564.652344 L 292.734375 689.140625 L 388.007812 689.140625 C 424.878906 689.140625 440.90625 678.949219 441.605469 644.207031 C 441.621094 643.53125 441.628906 612.082031 441.613281 611.546875 C 441.070312 577.269531 425.03125 564.652344 388.007812 564.652344 "/>
<path fill-rule="nonzero" fill="rgb(13.729858%, 12.159729%, 12.548828%)" fill-opacity="1" d="M 224.882812 581.671875 L 224.882812 665.929688 L 190.015625 665.929688 C 174.304688 665.929688 164.246094 660.792969 164.246094 642.445312 L 164.246094 564.425781 L 135.582031 564.425781 C 121.449219 564.425781 120.847656 568.515625 120.835938 581.671875 L 120.835938 642.445312 C 120.835938 679.695312 135.679688 689.347656 169.914062 689.347656 L 270.539062 689.347656 L 270.539062 564.425781 L 239.640625 564.425781 C 225.507812 564.425781 224.898438 568.515625 224.882812 581.671875 "/>
<path fill-rule="nonzero" fill="rgb(13.729858%, 12.159729%, 12.548828%)" fill-opacity="1" d="M 815.429688 666.796875 C 798.253906 666.796875 796.074219 657.257812 795.941406 642.617188 L 795.941406 608.28125 C 795.941406 593.46875 798.9375 584 816.222656 584 L 878.667969 584 C 884.667969 581.851562 884.421875 576.25 884.421875 564.652344 L 794.203125 564.652344 C 759.105469 564.652344 747.453125 584.929688 747.453125 617.207031 L 747.453125 636.871094 C 747.640625 669.039062 758.820312 689.140625 793.726562 689.140625 L 870.667969 689.140625 C 883.738281 689.140625 885.242188 685.640625 885.398438 674.722656 L 885.398438 666.796875 Z M 815.429688 666.796875 "/>
<path fill-rule="nonzero" fill="rgb(13.729858%, 12.159729%, 12.548828%)" fill-opacity="1" d="M 692.964844 612.550781 L 657.109375 612.550781 C 648.007812 612.550781 644.097656 606.992188 644.097656 598.839844 C 644.097656 590.699219 648.007812 584.757812 657.109375 584.757812 L 723.171875 584.757812 C 729.535156 583.890625 731.457031 581.136719 732.035156 575.296875 L 732.035156 564.652344 L 650.835938 564.652344 C 619.863281 564.652344 600.074219 573.738281 600.074219 601.082031 C 600.074219 626.890625 612.425781 636.699219 641.484375 636.699219 L 641.484375 636.765625 C 642.476562 636.765625 671.472656 636.785156 680.09375 636.785156 C 688.695312 636.785156 692.46875 642.949219 692.46875 650.472656 C 692.46875 658.625 688.597656 666.796875 675.636719 666.796875 L 602.3125 666.796875 C 602.3125 686.457031 610.898438 689.140625 619.445312 689.140625 L 691.054688 689.140625 C 722.023438 689.140625 736.492188 679.546875 736.492188 650.472656 C 736.492188 621.402344 724.359375 612.550781 692.964844 612.550781 "/>
<path fill-rule="nonzero" fill="rgb(78.598022%, 11.427307%, 16.481018%)" fill-opacity="1" d="M 619.445312 388.695312 C 619.445312 355.285156 592.359375 328.199219 558.953125 328.199219 C 525.542969 328.199219 498.445312 355.285156 498.445312 388.695312 C 498.445312 422.109375 525.542969 449.199219 558.953125 449.199219 C 592.359375 449.199219 619.445312 422.109375 619.445312 388.695312 "/>
<path fill-rule="nonzero" fill="rgb(10.073853%, 28.988647%, 14.051819%)" fill-opacity="1" d="M 552.199219 287.148438 C 552.199219 287.148438 486.070312 287.117188 403.765625 287.117188 C 366.917969 287.117188 313.621094 286.265625 313.621094 349.167969 L 313.621094 407.523438 C 313.621094 462.847656 366.917969 461.25 403.765625 461.25 L 486.386719 461.25 L 486.386719 383.429688 C 486.386719 337.960938 522.390625 316.125 558.953125 316.125 C 603.257812 316.125 631.523438 344.160156 631.523438 384.210938 L 631.523438 461.25 L 697.082031 461.25 L 697.082031 349.167969 C 697.082031 287.117188 645.253906 287.148438 608.019531 287.148438 C 607.484375 287.148438 572.722656 287.160156 572.195312 287.160156 Z M 552.199219 287.148438 "/>
<path fill-rule="nonzero" fill="rgb(16.712952%, 59.512329%, 30.601501%)" fill-opacity="1" d="M 458.503906 265.839844 C 458.503906 265.839844 524.632812 265.878906 606.9375 265.878906 C 643.785156 265.878906 697.082031 266.726562 697.082031 203.832031 L 697.082031 145.46875 C 697.082031 90.148438 643.785156 91.738281 606.9375 91.738281 L 524.316406 91.738281 L 524.316406 169.566406 C 524.316406 215.035156 488.316406 236.859375 451.75 236.859375 C 407.445312 236.859375 379.183594 208.84375 379.183594 168.777344 L 379.183594 91.738281 L 313.621094 91.738281 L 313.621094 203.832031 C 313.621094 265.878906 365.457031 265.839844 402.6875 265.839844 C 403.21875 265.839844 437.976562 265.832031 438.507812 265.832031 Z M 458.503906 265.839844 "/>
<path fill-rule="nonzero" fill="rgb(93.605042%, 18.110657%, 19.842529%)" fill-opacity="1" d="M 391.253906 164.289062 C 391.253906 197.695312 418.339844 224.796875 451.753906 224.796875 C 485.167969 224.796875 512.246094 197.695312 512.246094 164.289062 C 512.246094 130.875 485.167969 103.796875 451.753906 103.796875 C 418.339844 103.796875 391.253906 130.875 391.253906 164.289062 "/>
</svg>
