<?xml version="1.0" encoding="utf-8"?>
<!-- Generator: Adobe Illustrator 28.2.0, SVG Export Plug-In . SVG Version: 6.00 Build 0)  -->
<svg version="1.1" id="Camada_1" xmlns="http://www.w3.org/2000/svg" xmlns:xlink="http://www.w3.org/1999/xlink" x="0px" y="0px"
	 viewBox="0 0 2000 483.3" style="enable-background:new 0 0 2000 483.3;" xml:space="preserve">
<style type="text/css">
	.st0{fill:#FFFFFF;}
	.st1{fill:#F4BEBE;}
	.st2{fill:#00523C;}
	.st3{fill:#F0F0FF;}
	.st4{fill:#302A66;}
	.st5{fill:#B10000;}
	.st6{fill:#F44F21;}
</style>
<g>
	<path class="st5" d="M1647.2,239.3c0,63.7,51.5,115.3,115,115.3h115c63.5,0,115-51.6,115-115.3c0-58.9-44-107.4-100.9-114.4v-0.9
		h100.9c0-63.7-51.5-115.3-115-115.3h-115c-63.5,0-115,51.6-115,115.3c0,58.3,43.1,106.4,99.1,114.2v1.1H1647.2z"/>
	<path class="st5" d="M1380.9,354.6h115c63.5,0,115-51.6,115-115.3h-102.3v-0.7c57.5-6.4,102.3-55.2,102.3-114.6H1510v-0.9
		c56.9-7,100.9-55.5,100.9-114.4h-230.1c-63.5,0-115,51.6-115,115.3v115.3C1265.8,303,1317.3,354.6,1380.9,354.6z M1380.9,141.1h1.3
		c7.6,51.7,49.6,92.2,101.9,97.6v0.6h-103.1V141.1z"/>
	<path class="st5" d="M1114.5,8.8H884.5c0,59.5,45,108.4,102.7,114.6v1.4c-57.7,6.2-102.7,55.1-102.7,114.6
		c0,63.7,51.5,115.3,115,115.3c59,0,107.5-44.5,114.2-101.7h0.8v101.7h115V124.1C1229.6,60.4,1178.1,8.8,1114.5,8.8z M1114.5,239.3
		h-115V124.1h115V239.3z"/>
	<path class="st5" d="M732.5,132.5h0.8v222.1h115V119.4c0-63.7-51.5-115.3-115-115.3h0c-59.6,0-108.6,45.4-114.4,103.6h-1.2
		C611.7,49.5,562.7,4.1,503.2,4.1c-63.5,0-115,51.6-115,115.3v235.2h115V132.5h0.8c6.5,57.5,55.2,102.1,114.3,102.1
		C677.3,234.7,725.9,190,732.5,132.5z"/>
	<path class="st5" d="M256.7,225.8L256.7,225.8c-12,0-23.5,9.5-23.5,26.2c0,16.7,11.6,26.3,23.5,26.3c12,0,23.7-9.8,23.7-26.6
		C280.4,234.9,268.9,225.8,256.7,225.8z"/>
	<path class="st5" d="M352.8,239.3c0-63.7-51.5-115.3-115-115.3H7.7v230.6h345.1V239.3z M112.9,291H63.7v-98.2h16.1V278h33.1V291z
		 M198.4,291h-16.2v-11.6c-4.9,6.6-14.2,12.9-27.2,12.9c-20.2,0-36.4-16.5-36.4-40.5c0-24,16.2-39.8,36.6-39.8
		c13.1,0,22.1,6.2,26.9,12.6v-11.3h16.2V291z M260.2,292.2L260.2,292.2c-12.8,0-22-5.7-27.1-12.5V291h-16.1V186.4h16.1v38.3
		c5.1-7.1,14.8-12.9,27.1-12.9c20.6,0,36.5,15.8,36.5,39.8C296.7,275.7,280.6,292.2,260.2,292.2z"/>
	<path class="st5" d="M158.6,225.9L158.6,225.9c-12,0-23.5,9-23.5,25.8c0,16.8,11.6,26.6,23.5,26.6c12,0,23.5-9.5,23.5-26.3
		C182.1,235.2,170.7,225.9,158.6,225.9z"/>
	<polygon class="st5" points="17.5,407.5 7.7,407.5 7.7,467.2 37.7,467.2 37.7,459.3 17.5,459.3 	"/>
	<path class="st5" d="M79.8,426.8c-2.9-3.9-8.4-7.7-16.4-7.7c-12.4,0-22.3,9.6-22.3,24.2C41.1,458,51,468,63.3,468
		c7.9,0,13.6-3.8,16.6-7.8v7h9.9v-47.3h-9.9V426.8z M65.5,459.5c-7.3,0-14.3-5.9-14.3-16.1c0-10.2,7-15.7,14.3-15.7
		c7.4,0,14.3,5.7,14.3,15.9C79.8,453.7,72.8,459.5,65.5,459.5z"/>
	<path class="st5" d="M127.4,419.1L127.4,419.1c-7.5,0-13.4,3.5-16.5,7.8v-23.3h-9.8v63.6h9.8v-6.9c3.1,4.1,8.7,7.7,16.5,7.7
		c12.4,0,22.2-10.1,22.2-24.7C149.6,428.8,139.9,419.1,127.4,419.1z M125.2,459.5c-7.3,0-14.3-5.8-14.3-16c0-10.2,7-15.9,14.3-15.9
		c7.4,0,14.4,5.5,14.4,15.7C139.7,453.5,132.5,459.5,125.2,459.5z"/>
	<path class="st5" d="M178.8,419.1c-13.5,0-24.1,9.5-24.1,24.4h0c0,14.9,10.1,24.5,23.7,24.5c13.6,0,24.6-9.7,24.6-24.5
		C202.9,428.7,192.2,419.1,178.8,419.1z M178.4,459.5c-7.4,0-13.8-5.2-13.8-16c0-10.7,6.7-15.9,14-15.9c7.3,0,14.3,5.2,14.3,15.9
		C192.9,454.2,185.8,459.5,178.4,459.5z"/>
	<path class="st5" d="M221,426.8v-6.9h-9.8v47.3h9.8v-24.9c0-10,4.5-13.1,11.7-13.1h2.5v-10.1C228.4,419.1,223.7,422.1,221,426.8z"
		/>
	<path class="st5" d="M278.2,426.8c-2.9-3.9-8.4-7.7-16.4-7.7c-12.4,0-22.3,9.6-22.3,24.2c0,14.6,9.9,24.7,22.2,24.7
		c7.9,0,13.6-3.8,16.6-7.8v7h9.9v-47.3h-9.9V426.8z M263.8,459.5c-7.3,0-14.3-5.9-14.3-16.1c0-10.2,7-15.7,14.3-15.7
		c7.4,0,14.3,5.7,14.3,15.9C278.1,453.7,271.1,459.5,263.8,459.5z"/>
	<path class="st5" d="M310.9,408.2H301v11.8h-5.6v8h5.6v26.2c0,9.6,5.2,13.1,13.6,13.1h7.7v-8.2h-6c-4.1,0-5.5-1.5-5.5-5v-26.2h11.5
		v-8h-11.5V408.2z"/>
	<path class="st5" d="M350.9,419.1c-13.5,0-24.1,9.5-24.1,24.4h0c0,14.9,10.1,24.5,23.7,24.5c13.6,0,24.6-9.7,24.6-24.5
		C375,428.7,364.3,419.1,350.9,419.1z M350.4,459.5c-7.4,0-13.8-5.2-13.8-16c0-10.7,6.7-15.9,14-15.9c7.3,0,14.3,5.2,14.3,15.9
		C364.9,454.2,357.9,459.5,350.4,459.5z"/>
	<polygon class="st5" points="340.7,415.8 359.7,406.4 359.7,398.1 340.7,408.6 	"/>
	<path class="st5" d="M393,426.8v-6.9h-9.8v47.3h9.8v-24.9c0-10,4.5-13.1,11.7-13.1h2.5v-10.1C400.5,419.1,395.8,422.1,393,426.8z"
		/>
	<path class="st5" d="M419.7,401.1c-3.5,0-6.3,2.7-6.3,6.3c0,3.5,2.8,6.3,6.3,6.3c3.4,0,6.2-2.7,6.2-6.3
		C425.9,403.8,423.3,401.1,419.7,401.1z"/>
	<rect x="414.7" y="419.9" class="st5" width="9.8" height="47.3"/>
	<path class="st5" d="M456.9,419.1c-13.5,0-24.1,9.5-24.1,24.4h0c0,14.9,10.1,24.5,23.7,24.5c13.6,0,24.6-9.7,24.6-24.5
		C481,428.7,470.4,419.1,456.9,419.1z M456.5,459.5c-7.4,0-13.8-5.2-13.8-16c0-10.7,6.7-15.9,14-15.9c7.3,0,14.3,5.2,14.3,15.9
		C471,454.2,463.9,459.5,456.5,459.5z"/>
	<path class="st5" d="M545.6,426.5c-3.6-4.5-10.1-7.4-16.3-7.4h0c-12.5,0-22.4,9.6-22.4,24.2c0,14.6,9.9,24.7,22.3,24.7
		c7.7,0,13.4-3.6,16.4-7.9v7.1h9.9v-63.6h-9.9V426.5z M531.3,459.5c-7.3,0-14.3-5.9-14.3-16.1c0-10.2,7-15.7,14.3-15.7
		c7.4,0,14.3,5.7,14.3,15.9C545.6,453.7,538.6,459.5,531.3,459.5z"/>
	<path class="st5" d="M587.2,419.1c-14,0-23.6,9.5-23.6,24.4c0,14.9,10.1,24.5,23.6,24.5c11.6,0,19.1-6.6,21.7-14.9h-10.6
		c-1.8,3.7-5.2,6.6-11.2,6.6c-7.2,0-12.8-4.7-13.5-12.5h36.2c0.2-1.6,0.3-3.2,0.3-4.8C610.2,428.5,601.2,419.1,587.2,419.1z
		 M573.8,439.3c1.1-7.5,6.4-11.9,13-11.9c7.3,0,13.1,4.6,13.2,11.9H573.8z"/>
	<path class="st5" d="M696.6,419.1c-6.9,0-13.6,3.6-16.5,9.4c-3.2-6.2-9.5-9.4-17-9.4c-5.7,0-10.8,2.3-14,6.2v-5.4h-9.8l0.1,0v47.3
		h9.8v-26.5c0-8.7,4.8-13.1,11.9-13.1c7.1,0,11.8,4.5,11.8,13.1v26.5h9.7v-26.5c0-8.7,4.8-13.1,11.9-13.1c7.1,0,11.8,4.5,11.8,13.1
		v26.5h9.7v-27.9C716.1,426.1,707.6,419.1,696.6,419.1z"/>
	<path class="st5" d="M748,419.1c-13.5,0-24.1,9.5-24.1,24.4h0c0,14.9,10.1,24.5,23.7,24.5c13.6,0,24.6-9.7,24.6-24.5
		C772.1,428.7,761.5,419.1,748,419.1z M747.6,459.5c-7.4,0-13.8-5.2-13.8-16c0-10.7,6.7-15.9,14-15.9c7.3,0,14.3,5.2,14.3,15.9
		C762.1,454.2,755,459.5,747.6,459.5z"/>
	<path class="st5" d="M815.8,426.5c-3.6-4.5-10.1-7.4-16.3-7.4h0c-12.5,0-22.4,9.6-22.4,24.2c0,14.6,9.9,24.7,22.3,24.7
		c7.7,0,13.4-3.6,16.4-7.9v7.1h9.9v-63.6h-9.9V426.5z M801.5,459.5c-7.3,0-14.3-5.9-14.3-16.1c0-10.2,7-15.7,14.3-15.7
		c7.4,0,14.3,5.7,14.3,15.9C815.8,453.7,808.8,459.5,801.5,459.5z"/>
	<path class="st5" d="M872.6,426.8c-2.9-3.9-8.4-7.7-16.4-7.7c-12.5,0-22.3,9.6-22.3,24.2c0,14.6,9.9,24.7,22.2,24.7
		c7.9,0,13.6-3.8,16.6-7.8v7h9.9v-47.3h-9.9V426.8z M858.2,459.5c-7.3,0-14.3-5.9-14.3-16.1c0-10.2,7-15.7,14.3-15.7
		c7.4,0,14.3,5.7,14.3,15.9C872.5,453.7,865.5,459.5,858.2,459.5z"/>
	<polygon class="st5" points="887.8,479.2 894.2,479.2 904.6,455.5 893.9,455.5 	"/>
	<path class="st5" d="M968.1,426.8c-2.9-3.9-8.4-7.7-16.4-7.7c-12.5,0-22.3,9.6-22.3,24.2c0,14.6,9.9,24.7,22.2,24.7
		c7.9,0,13.6-3.8,16.6-7.8v7h9.9v-47.3h-9.9V426.8z M953.7,459.5c-7.3,0-14.3-5.9-14.3-16.1c0-10.2,7-15.7,14.3-15.7
		c7.4,0,14.3,5.7,14.3,15.9C968,453.7,961,459.5,953.7,459.5z"/>
	<path class="st5" d="M999.1,426.8v-6.9h-9.8v47.3h9.8v-24.9c0-10,4.5-13.1,11.7-13.1h2.5v-10.1
		C1006.6,419.1,1001.9,422.1,999.1,426.8z"/>
	<path class="st5" d="M1032.3,408.2h-9.9v11.8h-5.6v8h5.6v26.2c0,9.6,5.2,13.1,13.6,13.1h7.7v-8.2h-6c-4.1,0-5.5-1.5-5.5-5v-26.2
		h11.5v-8h-11.5V408.2z"/>
	<path class="st5" d="M1071.7,419.1c-14,0-23.6,9.5-23.6,24.4c0,14.9,10.1,24.5,23.6,24.5c11.6,0,19.1-6.6,21.7-14.9h-10.6
		c-1.8,3.7-5.2,6.6-11.2,6.6c-7.2,0-12.8-4.7-13.5-12.5h36.2c0.2-1.6,0.3-3.2,0.3-4.8C1094.7,428.5,1085.7,419.1,1071.7,419.1z
		 M1058.3,439.3c1.1-7.5,6.4-11.9,13-11.9c7.3,0,13.1,4.6,13.2,11.9H1058.3z"/>
	<path class="st5" d="M1111,432.7c0-3.2,2.7-5.3,8-5.3c5.3,0,8.5,2.8,8.8,7h9.8c-0.5-9.5-7.1-15.2-18.3-15.2
		c-11.2,0-18.2,6.1-18.2,13.6c0,17.3,27.5,12,27.5,21.3c0,3.2-3.3,5.7-8.7,5.7c-5.4,0-9.1-3.2-9.5-7h-10.1l0.1,0
		c0.4,8.6,8.6,15.3,19.7,15.3s18.1-6,18.1-14C1137.7,436.9,1111,442.3,1111,432.7z"/>
	<polygon class="st5" points="1141.2,479.2 1147.6,479.2 1158,455.5 1147.3,455.5 	"/>
	<path class="st5" d="M1206.3,419.1c-14,0-23.6,9.5-23.6,24.4c0,14.9,10.1,24.5,23.6,24.5c11.6,0,19.1-6.6,21.7-14.9h-10.6
		c-1.8,3.7-5.2,6.6-11.2,6.6c-7.2,0-12.8-4.7-13.5-12.5h36.2c0.2-1.6,0.3-3.2,0.3-4.8C1229.3,428.5,1220.3,419.1,1206.3,419.1z
		 M1192.9,439.3c1.1-7.5,6.4-11.9,13-11.9c7.3,0,13.1,4.6,13.2,11.9H1192.9z"/>
	<path class="st5" d="M1261.4,419.1c-5.6,0-10.9,2.3-14.1,6.2v-5.4h-9.8l0,0v47.3h9.8v-26.5c0-8.7,4.8-13.1,11.9-13.1
		c7.1,0,11.8,4.5,11.8,13.1v26.5h9.7v-27.9C1280.8,426.1,1272.5,419.1,1261.4,419.1z"/>
	<path class="st5" d="M1299.9,432.7c0-3.2,2.7-5.3,8-5.3c5.3,0,8.5,2.8,8.8,7h9.8c-0.5-9.5-7.1-15.2-18.3-15.2
		c-11.2,0-18.2,6.1-18.2,13.6c0,17.3,27.5,12,27.5,21.3c0,3.2-3.3,5.7-8.7,5.7c-5.4,0-9.1-3.2-9.5-7h-10.1l0.1,0
		c0.4,8.6,8.6,15.3,19.7,15.3s18.1-6,18.1-14C1326.6,436.9,1299.9,442.3,1299.9,432.7z"/>
	<path class="st5" d="M1341.1,401.1c-3.5,0-6.3,2.7-6.3,6.3c0,3.5,2.8,6.3,6.3,6.3c3.4,0,6.2-2.7,6.2-6.3
		C1347.3,403.8,1344.6,401.1,1341.1,401.1z"/>
	<rect x="1336.1" y="419.9" class="st5" width="9.8" height="47.3"/>
	<path class="st5" d="M1381.2,419.1c-5.6,0-10.9,2.3-14.1,6.2v-5.4h-9.8l0,0v47.3h9.8v-26.5c0-8.7,4.8-13.1,11.9-13.1
		c7.1,0,11.8,4.5,11.8,13.1v26.5h9.7v-27.9C1400.6,426.1,1392.3,419.1,1381.2,419.1z"/>
	<path class="st5" d="M1432.6,419.1c-13.5,0-24.1,9.5-24.1,24.4h0c0,14.9,10.1,24.5,23.7,24.5s24.6-9.7,24.6-24.5
		C1456.7,428.7,1446,419.1,1432.6,419.1z M1432.1,459.5c-7.4,0-13.8-5.2-13.8-16c0-10.7,6.7-15.9,14-15.9c7.3,0,14.3,5.2,14.3,15.9
		C1446.6,454.2,1439.6,459.5,1432.1,459.5z"/>
	<path class="st5" d="M1506.1,419.1c-14,0-23.6,9.5-23.6,24.4c0,14.9,10.1,24.5,23.6,24.5c11.6,0,19.1-6.6,21.7-14.9h-10.6
		c-1.8,3.7-5.2,6.6-11.2,6.6c-7.2,0-12.8-4.7-13.5-12.5h36.2c0.2-1.6,0.3-3.2,0.3-4.8C1529.1,428.5,1520.1,419.1,1506.1,419.1z
		 M1492.7,439.3c1.1-7.5,6.4-11.9,13-11.9c7.3,0,13.1,4.6,13.2,11.9H1492.7z"/>
	<path class="st5" d="M1566.3,432.7c0-3.2,2.7-5.3,8-5.3s8.5,2.8,8.8,7h9.8c-0.5-9.5-7.1-15.2-18.3-15.2s-18.2,6.1-18.2,13.6
		c0,17.3,27.5,12,27.5,21.3c0,3.2-3.3,5.7-8.7,5.7c-5.4,0-9.1-3.2-9.5-7h-10.1l0.1,0c0.4,8.6,8.6,15.3,19.7,15.3
		c11.1,0,18.1-6,18.1-14C1593,436.9,1566.3,442.3,1566.3,432.7z"/>
	<path class="st5" d="M1623.5,419.1c-13.5,0-24.1,9.5-24.1,24.4h0c0,14.9,10.1,24.5,23.7,24.5c13.6,0,24.6-9.7,24.6-24.5
		C1647.6,428.7,1637,419.1,1623.5,419.1z M1623.1,459.5c-7.4,0-13.8-5.2-13.8-16c0-10.7,6.7-15.9,14-15.9c7.3,0,14.3,5.2,14.3,15.9
		C1637.6,454.2,1630.5,459.5,1623.1,459.5z"/>
	<path class="st5" d="M1675.8,427.4c5.9,0,9.6,2.9,11.3,7.5h10.6c-2.7-10-10.2-15.7-21.8-15.7v0c-13.6,0-23.2,9.5-23.2,24.4
		c0,14.9,9.6,24.5,23.2,24.5c11.6,0,19.2-6.4,21.8-15.7h-10.6c-1.8,4.9-5.4,7.5-11.3,7.5c-7.9,0-13.1-5.9-13.1-16.2
		C1662.7,433.3,1667.9,427.4,1675.8,427.4z"/>
	<path class="st5" d="M1710.9,401.1c-3.5,0-6.3,2.7-6.3,6.3c0,3.5,2.8,6.3,6.3,6.3c3.4,0,6.2-2.7,6.2-6.3
		C1717.1,403.8,1714.4,401.1,1710.9,401.1z"/>
	<rect x="1705.9" y="419.9" class="st5" width="9.8" height="47.3"/>
	<path class="st5" d="M1747.5,419.1c-14,0-23.6,9.5-23.6,24.4c0,14.9,10.1,24.5,23.6,24.5c11.6,0,19.1-6.6,21.7-14.9h-10.6
		c-1.8,3.7-5.2,6.6-11.2,6.6c-7.2,0-12.8-4.7-13.5-12.5h36.2c0.2-1.6,0.3-3.2,0.3-4.8C1770.5,428.5,1761.5,419.1,1747.5,419.1z
		 M1734.1,439.3c1.1-7.5,6.4-11.9,13-11.9c7.3,0,13.1,4.6,13.2,11.9H1734.1z"/>
	<path class="st5" d="M1814.1,426.5c-3.6-4.5-10.1-7.4-16.3-7.4h0c-12.5,0-22.4,9.6-22.4,24.2c0,14.6,9.9,24.7,22.3,24.7
		c7.7,0,13.4-3.6,16.4-7.9v7.1h9.9v-63.6h-9.9V426.5z M1799.8,459.5c-7.3,0-14.3-5.9-14.3-16.1c0-10.2,7-15.7,14.3-15.7
		c7.4,0,14.3,5.7,14.3,15.9C1814.1,453.7,1807.1,459.5,1799.8,459.5z"/>
	<path class="st5" d="M1870.9,426.8c-2.9-3.9-8.4-7.7-16.4-7.7c-12.5,0-22.3,9.6-22.3,24.2c0,14.6,9.9,24.7,22.2,24.7
		c7.9,0,13.6-3.8,16.6-7.8v7h9.9v-47.3h-9.9V426.8z M1856.5,459.5c-7.3,0-14.3-5.9-14.3-16.1c0-10.2,7-15.7,14.3-15.7
		c7.4,0,14.3,5.7,14.3,15.9C1870.8,453.7,1863.8,459.5,1856.5,459.5z"/>
	<path class="st5" d="M1927.6,426.5c-3.6-4.5-10.1-7.4-16.3-7.4h0c-12.5,0-22.4,9.6-22.4,24.2c0,14.6,9.9,24.7,22.3,24.7
		c7.7,0,13.4-3.6,16.4-7.9v7.1h9.9v-63.6h-9.9V426.5z M1913.3,459.5c-7.3,0-14.3-5.9-14.3-16.1c0-10.2,7-15.7,14.3-15.7
		c7.4,0,14.3,5.7,14.3,15.9C1927.6,453.7,1920.6,459.5,1913.3,459.5z"/>
	<path class="st5" d="M1992.3,442.4c0-13.9-9-23.3-23-23.3c-14,0-23.6,9.5-23.6,24.4c0,14.9,10.1,24.5,23.6,24.5
		c11.6,0,19.1-6.6,21.7-14.9h-10.6c-1.8,3.7-5.2,6.6-11.2,6.6c-7.2,0-12.8-4.7-13.5-12.5h36.2C1992.2,445.6,1992.3,444,1992.3,442.4
		z M1955.9,439.3c1.1-7.5,6.4-11.9,13-11.9c7.3,0,13.1,4.6,13.2,11.9H1955.9z"/>
</g>
</svg>
