<?xml version="1.0" encoding="UTF-8"?>
<svg id="Layer_1" xmlns="http://www.w3.org/2000/svg" version="1.1" viewBox="0 0 420.94 273.45">
  <!-- Generator: Adobe Illustrator 30.2.1, SVG Export Plug-In . SVG Version: 2.1.1 Build 1)  -->
  <defs>
    <style>
      .st0 {
        fill: #fff;
      }
    </style>
  </defs>
  <path d="M254.75,110.32c-2.78.28-5.88,2.45-5.91,5.37l-.16,13.87c-.03,2.73,2.78,1.92,3.19,3.19h-10.18c-.05-1.16,3-.45,3-2.82v-17.18c.02-2.58-2.53-1.58-2.74-2.36-.05-.2.38-.6.61-.68l4.07-1.41c.59-.21,1.38-.24,2.06-.25l.08,4.71,1.85-1.92c2.79-2.89,7.24-3.94,10.89-1.91,1.78.99,2.74,3.29,2.75,5.35l.08,15.52c0,1.16.65,1.76,1.69,2.07,2.15.64,4.4-.18,4.4-1.94l-.03-31.76c0-2.29-2.29-1.7-3.67-2.63,1.29-.56,6.78-3.22,7.79-2.18l.05,19.58c3.13-3.66,5.98-5.83,10.9-4.76s4.76,5.82,4.77,9.5v12.13c0,2.47,3.25,1.82,3.24,2.93l-10.73.04c-.04-1.37,3.4-.15,3.38-2.98l-.07-14.03c-.01-1.91-.88-3.97-2.52-4.85-4.1-2.21-8.96,1.92-8.96,5.08l-.03,13.78c0,2.58,3.56,1.89,3,3l-20.81-.02c.22-1.32,3.48-.27,3.46-2.95l-.09-14.81c-.02-2.91-2.3-4.99-5.35-4.68Z"/>
  <path d="M211.01,129.45c-.09,3.07,3.33,1.97,3.11,3.33h-10.57c-.07-1.21,3.27-.39,3.27-2.77v-12.58c-.01-1.32-.16-2.68-.44-3.9-.54-2.34-2.62-3.61-5.09-3.06s-5.19,2.93-5.23,5.72l-.18,12.14c-.01.86.08,1.91.45,2.65.46.9,1.66.71,2.89,1.44.11.07-.43.4-.57.4l-10.28-.06c-.17-1.22,3.38-.44,3.39-2.69l.02-17.09c0-3.3-3.8-1.5-3.33-2.81.5-.31,7.67-3.12,7.49-1.78l.12,4.64c1.43-1.66,2.6-3.34,4.56-4.32,1.68-.84,3.81-1,5.59-.53,2.49.65,3.96,2.43,4.57,5.07,2-3.32,5.19-5.39,8.95-5.34,2.35.03,4.55.79,5.68,2.95.79,1.51,1.08,3.34,1.08,5.1v13.61c0,2.96,3.16,1.9,3.17,3.21h-10.6c-.54-1,3.16-.68,3.16-2.45l-.06-15.31c0-1.87-1.12-3.69-2.87-4.34-3.33-1.24-7.79,1.04-8.11,4.79-.4,4.67-.05,9.18-.18,13.99Z"/>
  <path d="M155.65,130.95c3.03-1.29,4.8-3.77,5.47-6.72.11-.5.38-.89.95-1.04.02,2.76-.16,5.14-.46,7.89-8.65,3.04-20.41,3.57-27.43-3.32-5.77-5.66-6.5-15.75-2.53-22.69,5.79-10.11,19.69-11.22,29.8-7.47.38,3.43.49,6.62.28,10.08-.5-.13-.67-.53-.74-1.02-.37-2.37-1.02-4.72-2.69-6.45-2.48-2.56-5.82-3.45-9.33-3.36-5.29.14-9.94,2.67-12.41,7.49-3.14,6.12-2.9,13.58.38,19.63,3.64,6.71,11.62,10.03,18.72,7Z"/>
  <path d="M304.82,133.14c-5.03-.42-8.91-3.34-10.18-8.17-2.08-7.92,1.97-15.96,10.25-17,6.91-.87,12.72,3.62,13.76,10.42.57,3.73-.38,7.47-2.78,10.46-2.68,3.33-6.71,4.65-11.06,4.29ZM309.63,131.64c2.1-.99,3.31-3.05,3.89-5.16,1.44-5.27.83-13.05-4.09-16.47-3.26-2.27-7.46-.78-9.08,2.89-2.2,5.02-2.02,14.12,2.23,17.78,1.85,1.6,4.76,2.05,7.05.97Z"/>
  <path d="M177.8,128.02c-2.1,3.17-5.05,5.94-8.89,4.83-2.17-.63-3.38-2.82-3.14-5.01.63-5.69,7.48-7,12.14-8.25.08-2.07.15-4.19-.14-6.19-.39-2.67-2.65-4.33-5.26-3.77-1.58.34-3.33,1.31-3.24,2.99.07,1.4,2.61,2,1.11,4.05-.46.64-1.44,1.2-2.33.95-.79-.23-1.5-1.08-1.64-2.06-.5-3.59,3.28-6.52,6.28-7.31,1.48-.39,3.19-.34,4.68-.16,3.9.48,4.82,4.03,4.82,7.38l-.03,12.15c0,.99.44,2.38,1.2,2.87,1.88,1.2,3.5-1.66,4.46-1.95-.32,1.87-1.67,3.18-3.2,3.99s-3.66.73-5.07-.32c-1.32-.99-1.45-2.59-1.73-4.18ZM173.88,129.82c2.08-.81,3.36-2.45,4.1-4.45l-.04-4.65c-2.87.37-5.42,1.46-7.2,3.59-1.24,1.49-1.28,3.62,0,5.02.77.85,1.99.83,3.13.48Z"/>
  <path d="M336.56,127.32c-1.13,6.92-11.28,6.93-16.22,4.09-.02-2.5-.13-4.86.89-7.31.58,1.3.64,2.39.98,3.53,1.01,3.39,4.33,5.32,7.74,4.41,1.55-.42,2.77-1.62,3.15-2.95.45-1.55.13-3.22-1.01-4.38-3.87-3.95-11.03-3.59-11.55-9.67-.18-2.1.75-4.04,2.46-5.34,3.38-2.57,8.13-2.08,11.84-.02.14,2,.18,3.93.04,6-1.33.28-.78-2.27-2.86-4.75-1.96-2.33-5.56-2.62-7.59-.28-1.44,1.66-.71,4.2,1.08,5.23,2.75,1.58,6.39,3.15,8.24,4.46,2.26,1.61,3.27,4.19,2.82,6.97Z"/>
  <path d="M127.08,87.9c2.21-3.65,4.18-7.08,6.32-11.08l-11.08.62c-1,.06-2.51.27-3.26.87-2.24,1.8-3.3,4.71-4.08,3.99l3.07-8.46,18.77-.64-4.36,8.44-7.18,14.82-2.77,7.12c-.12.31-.68,1.02-.99,1.02l-4.58-.02,10.14-16.69Z"/>
  <path d="M218.6,175.82c-.63.41-1.86.37-2.5.12l2.63-11.1c.23-.96.53-2.04.11-2.96-.41-.33-1.51.03-1.96.45-2.64,2.49-4.54,5.57-5.51,9.1l-1.23,4.49c-.78.2-1.8.19-2.54-.04.55-2.44,3.49-12.81,3.09-14.14-.04-.15-.7.03-.83.16l-2.14,2.21c-.03-1.78,2.79-5.01,4.88-4.05.4.18.73,1.12.64,1.64l-.84,5.04c1.41-2.01,5.39-8.84,8.56-6.39.55.42.69,1.63.57,2.34l-.69,4.02,2.02-2.88c1.08-1.55,2.37-3.05,4.16-3.75.95-.37,2.35-.24,2.82.77.51,1.08.36,2.55.05,3.73l-2.12,8.12c-.16.6-.1,1.58.35,1.88,1.46-.56,2-2,3.21-3.08.07,1.68-3.23,5.7-5.37,4.47-1.62-.93-.49-4.15-.06-5.88l1.74-7c.07-.3-.08-.98-.28-1.19-.23-.25-1.13-.14-1.42.09-4.05,3.28-6.11,8.61-7.33,13.81Z"/>
  <path d="M233.67,183.9c-.27,1.22,1.46.82,2.04,1.79l-7.58.05c.05-1.35,2.32.16,2.92-2.31l1.71-6.99,3.3-13.99-2.53,2.08c-.12-.28.01-.86.28-1.1,3.77-3.36,3.91-7.47,5.17-7.07.21.07.4.64.35.87l-1.38,6.86c1.28-1.14,2.09-3.19,4.39-3.99,2.02-.7,3.9.37,4.43,2.34.79,2.91.27,5.87-1.17,8.53-1.04,1.94-2.43,3.77-4.39,4.73s-3.94.67-5.55-.78l-2.01,8.98ZM238.94,175.45c4.5.25,7.37-12.5,4.06-13.88-2.16-.89-4.65,3.27-5.29,5.22-.74,2.24-1.23,4.44-1.57,6.82.58.86,1.69,1.78,2.8,1.84Z"/>
  <path d="M138.87,174.63c4.57,2.73,10.28.39,12.15-4.37.23-.58.42-.9,1-1.35l-.33,4.75c-.05.67-.65,1.37-1.33,1.6-5.78,1.94-14.12,2.23-17.38-3.94-1.01-1.92-1.36-4.18-1.05-6.38.8-5.62,4.71-9.97,9.99-11.98,4.27-1.63,8.86-1.56,13.32-.19l-.8,7.06c-1.4-1.95-.53-6.43-4.98-7.06-3.47-.49-6.95.75-9.57,3.19-5.49,5.11-6.39,15.47-1.02,18.68Z"/>
  <path d="M240.72,125.77c-.04,2.51-1.79,4.77-3.67,6.42-1.33,1.17-3.73,1.19-4.79-.26-.91-1.24-.69-3.04-.29-4.51l3.97-14.63c.13-.48-.03-1.53-.53-1.48-1.33.12-2.15,1.02-3.56,1.3,1.55-2.16,3.84-3.28,6.09-4.49.63-.34,1.55.17,1.76.78.27.79.38,1.59.16,2.36l-3.99,14.13c-.3,1.06-.98,4.45.2,4.91,1.72.67,3.42-3.32,4.65-4.53Z"/>
  <path d="M179.34,176.03c-3.08-1.45,2.92-12.43,1.53-14.16-.16-.2-.9-.16-1.14-.01-4.51,2.85-6.68,8.84-7.87,13.91-.71.39-1.86.41-2.61.11.68-2.68,3.37-12.2,3.23-14.02-.11-1.38-2.94,2.8-3.51,2.63.32-1.53,3.34-5.28,5.12-4.52s.11,5.03.09,6.78c1.56-2.24,2.94-4.27,5.02-5.95,1-.8,2.74-1.4,3.75-.37.92.93.77,2.74.42,4l-2.43,8.76c-.09.33.11,1.17.4,1.27s1-.19,1.21-.44l2.54-3.05c.1,1.94-3.4,6.17-5.77,5.05Z"/>
  <path d="M297.55,175.63c-.59-.85-.44-2.15-.18-3.09l2.66-9.56c.08-.31-.15-1.18-.45-1.25s-.97.08-1.27.32c-4.6,3.59-6.12,8.22-7.65,13.7-.48.46-1.76.49-2.38.09l3.09-13.16c.07-.28-.11-.78-.22-.88-.14-.14-.63.05-.78.2l-2.58,2.55c-.04-.68.27-1.16.67-1.68.93-1.21,2.76-3.7,4.44-2.82,2.02,1.05.2,5.22-.05,7.2,1.54-2.21,5.52-8.94,8.9-6.93.69.41,1.06,1.73.87,2.55-.58,2.51-1.23,4.74-1.99,7.2-.44,1.41-1.21,3.41-.63,4.4.12.2.8.04.98-.14l2.63-2.64c-.05,2-4.44,6.27-6.06,3.94Z"/>
  <path d="M287.44,171.25c.02,1.62-3.17,5.69-5.39,4.87-2.06-.76-.79-4.18-.78-5.58-2.03,2.54-3.12,4.86-6.21,5.64-1.54.39-2.99-.53-3.32-2.08-1.14-5.37,3.04-11.49,7.95-13.78,1.43-.67,2.83-.35,4.01.38.84-.32,1.74-.85,2.78-.52l-2.03,8.07c-.4,1.57-1.43,5.13-.79,6.24.1.17.75.08.91-.09l2.88-3.15ZM276.92,174.15c3.52-2.8,5.5-6.6,6.24-10.91.12-.72.02-1.63-.41-2-2.87-2.51-8.84,5.26-8.27,11.87.04.47.44,1.19.77,1.37s1.26,0,1.67-.33Z"/>
  <path d="M138.75,147.62c-.78,1.28-2.92,3.71-4.2,2.45-.24-.24-.39-.91-.35-1.28l.14-1.38c-1.06,1.44-3.22,4.08-5.15,2.61s0-6.89,3.06-9.15c1.11-.82,2.39-1.03,3.64-.24l1.22-5.61-1.97-.89c1.29-.33,2.39-.5,3.83-.57l-3.16,14.78c-.38,1.8,2.43.41,3.24-3.19.52-2.32,2.03-4.16,4.25-4.9,1.76-.59,3.92.07,4.35,2.08.7,3.22-1.28,6.96-4.38,7.91-2.11.64-4.1-.51-4.52-2.6ZM135.35,141.09c-.21-.28-1.06-.4-1.4-.27-3.13,1.2-4.65,8.07-2.87,8.49,2.06.48,5.27-6.86,4.26-8.22ZM145.66,141.52c-.15-.55-1.08-.94-1.52-.88-.39.06-1.22.33-1.49.67-2.71,3.47-2.7,8.35-.47,8.54,2.56.22,4.42-4.9,3.48-8.34Z"/>
  <path d="M250.15,175.5c-1.46-.87-2.05-2.52-2.21-4.09-.45-4.37,2.9-10.81,7.7-11.41,1.69-.21,3.2.07,4.41,1.17,3.07,2.78,1.78,10.35-2.65,13.63-2.15,1.59-4.8,2.16-7.24.71ZM257.13,160.88c-3.34-1.06-5.23,3.91-5.89,6.61-.61,2.45-1.03,7.18,1.8,7.94,4.94,1.32,8.1-13.28,4.09-14.54Z"/>
  <path d="M156.02,175.32c-1.78-1.22-2.16-3.53-2-5.46.43-4.89,3.66-9.93,8.79-9.95,2.12,0,3.92,1.25,4.5,3.28,1.19,4.21-.24,8.52-3.54,11.39-2.12,1.84-5.27,2.45-7.76.74ZM164.44,162.33c-.51-1.34-1.86-2.01-3.24-1.35-4.15,1.98-6.27,13.34-2.21,14.43,4.28,1.15,7.31-8.2,5.45-13.08Z"/>
  <path d="M318.08,175.46c-1.45-.85-2.05-2.55-2.18-4.15-.37-4.54,2.67-10.48,7.84-11.33,2.66-.43,5.09,1.14,5.64,3.8.82,3.93-.5,8.06-3.51,10.7-2.16,1.89-5.19,2.51-7.79.98ZM325.11,160.95c-1.34-.61-2.79.18-3.61,1.32-3.56,4.89-4.1,14.26.81,13.08s6.2-12.84,2.8-14.39Z"/>
  <path d="M201.98,174.51c1.46-.55,2.41-1.75,3.75-2.6-.73,2.34-3.09,3.89-5.33,4.29-2.37.43-4.42-1-5-3.22-1.07-4.08,1.24-8.67,4.08-11.22,1.94-1.75,5.46-2.69,6.89-.84.52.68.66,1.82.2,2.74-1.28,2.56-5.69,3.77-8.35,4.57-.37,1.41-.4,2.99,0,4.37.47,1.61,2.01,2.58,3.76,1.92ZM204.36,161.06c-2.08-2.14-5.95,4.26-5.92,6.3,2.67-.34,8.23-3.92,5.92-6.3Z"/>
  <path d="M310.99,174.55c1.61-.35,2.43-1.79,3.96-2.47-.96,2.33-3.29,3.85-5.62,4.17-1.76.24-3.65-.38-4.48-1.98-2.38-4.6.69-10.48,4.64-13.14,1.49-1,3.29-1.5,5.01-1.05,1.59.42,2.05,2.38,1.18,3.76-1.7,2.71-5.58,3.38-8.43,4.43-.81,1.55-.59,3.89.35,5.38.71,1.12,2.06,1.18,3.38.9ZM312.32,165.23c1.25-.89,2.36-2.7,1.52-4.03-.63-.99-2.38-.33-3.14.33-1.81,1.57-2.93,3.61-3.43,5.93,1.91-.6,3.5-1.13,5.05-2.24Z"/>
  <path d="M265.55,163.28c.13-.53,0-1.12-.22-1.71-.83.56-1.34,1.05-1.95,1.7l-.29.32c-.06.06-.13,0-.16-.07-.41-1.11,2.82-4.54,4.52-3.36,1.54,1.07-.24,4.98-.26,6.47l2.92-5.07c.45-.78,3-2.59,3.75-1.23.67,1.22.46,2.91-.84,3.5-.48-.44-.85-1.06-1.31-1.85-3.56,2.14-5.71,9.69-6.66,13.83-.72.36-1.77.35-2.58.13l3.07-12.66Z"/>
  <path d="M193.62,171.34c-.23,2.08-2.15,3.82-4.05,4.71-.9.42-2.33.15-2.58-.83-.32-1.26-.04-2.6.27-3.86l2.49-10.01-2.32-.29c1.3-1.57,3.21-.14,4.42-2.93.32-.74.6-1.35,1.3-2.15.35,1.53-.16,2.53-.42,4.19l3.25.02c.17,0,.73.34.62.45s-.45.37-.66.37l-3.51.07-3.09,11.81c-.17.66.15,1.58.66,1.72,1.71-.53,2.11-2.06,3.62-3.26Z"/>
  <path d="M148.42,76.77c1.15,4.01-1.61,8.03-5.62,8.51-2.07.25-4.25-.26-5.41-2.03-1.54-2.34-1.11-5.38.42-7.59,1.29-1.86,3.22-2.69,5.47-2.57s4.44,1.25,5.14,3.69ZM144.78,83.34c2.19-2.57,2.46-7.4.17-8.97-1.34-.92-3.5-.72-4.6.56-2,2.31-2.39,5.67-1.07,8.42.49,1.02,1.88,1.32,2.88,1.36.92.04,1.96-.58,2.62-1.36Z"/>
  <path d="M175.41,87.16h-3.15s.93-.72.93-.72c.05-1.51.1-2.92-.15-4.49-.06-.38-1.2-.52-1.54-.32s-.87.79-.88,1.18l-.06,3.62,1.02.72-3.15.09.84-.84.04-3.93c0-.42-.35-.88-.78-1.29l1.85-.56.3.94c.73-.43,1.29-.76,1.93-.89s1.44.6,1.9.98c.59-.42,1.44-.94,2.06-.97.73-.04,1.76.62,1.77,1.44v3.74c.01.48.33.76.92,1.32h-3.1s1.02-.72,1.02-.72v-3.43c0-.91-.55-1.56-1.34-1.51s-1.4.62-1.39,1.5l.03,3.44.93.71Z"/>
  <path d="M160.26,86.8c-1.42.74-3.12.63-4.64.2-.22-.72-.29-1.46-.29-2.39l1.37,1.68c.62.76,2.43.74,3.08-.01.93-1.08.1-2.42-.97-2.9-1.79-.8-3.57-1.46-3.23-3.69.12-.82.88-1.71,1.95-1.99.96-.25,2.12-.07,3.14.4.19.59.18,1.58.05,2.25-.56-.8-.86-1.63-1.49-2.05-.58-.39-1.61-.15-2.06.2s-.88,1.58-.3,2.1c1.67,1.51,4.33,1.69,4.48,3.54.09,1.08-.02,2.1-1.09,2.65Z"/>
  <path d="M188.51,82.21c-.14-.68-1.26-.76-1.68-.57-.61.28-1.01.81-.99,1.64l.07,2.95c0,.25.64.59,1.01.94l-3.13.02.81-.78v-4.69s-.6-.19-.6-.19c-.08-.03-.21-.25-.13-.28s.39-.16.49-.19l1.1-.28c.23-.06.49.58.58.71,1.76-1.37,3.54-.53,3.64.13.5,3.38-.42,4.55,1.18,5.57h-3.09s.86-.76.86-.76c.09-1.32.18-2.73-.12-4.22Z"/>
  <circle cx="239.92" cy="100.54" r="2.44"/>
  <path d="M192.12,87.08c-.76-.49-.82-1.95.01-2.49s1.71-.74,2.81-.93l.06-1.45c.02-.39-.72-.99-1.1-.96-.57.04-.88.49-1.07,1.06l-.29.84c-.06.18-.57.06-.7-.06-.17-.16-.28-.76-.18-.98.47-1.06,1.72-1.35,2.88-1.38.73-.02,1.68.54,1.69,1.33l.06,4.38,1.03.03c-.2.35-.73.74-1.21.84-.56.11-1.03-.41-1.22-.94-.65.82-1.78,1.36-2.77.72ZM193.17,86.31c.41.29,1.52.04,1.67-.39.17-.46.19-1.21.18-1.97l-1.53.56c-.61.22-1.04,1.29-.31,1.8Z"/>
  <path d="M213.53,84.35c-.27,1.95-1.81,3.3-3.66,2.96-1.98-.37-2.99-2.33-2.58-4.01.48-1.94,2.32-3.07,4.27-2.43,1.39.46,2.17,1.93,1.96,3.48ZM209.97,86.77c.34.23,1.3,0,1.55-.28.9-1.06,1.2-4.18-.86-5.27-.48-.26-1.51.32-1.72.87-.6,1.59-.58,3.59,1.03,4.68Z"/>
  <path d="M286.06,157.53c-1.28-.13-2.51-3.02-3.85-2.97l-3.3,2.36c-.11.08-.5.21-.62.26-2.15.81,4.34-5.1,4.08-4.86,1.95-1.8,3.64,3.9,3.69,5.21Z"/>
  <path d="M163.55,83.58c-.05,1.32.34,2.16,1.35,2.68.74.38,1.73-.08,2.67-.65-.34,1.62-1.88,1.9-3.29,1.55-1.17-.28-1.95-1.46-1.97-2.9-.02-1.65.98-3.28,2.78-3.52.64-.08,1.55.24,2,.63.54.47.74,1.3.7,2.12l-4.22.09ZM166.46,83.07c-.08-.44-.18-.95-.28-1.34-.08-.33-1.05-.64-1.34-.47-.66.38-.99.98-1.25,1.74l2.87.07Z"/>
  <path d="M200.05,86.42l1.47.69c-1.38.13-2.19.13-3.63.09l.85-.81.03-4.29c0-.24-.54-.64-.82-.85l1.78-.56.35,1.11,1.26-.94c.33-.25,1.3.01,1.46.39.18.42-.09,1.48-.46,1.3-.61-.31-1.1-.62-1.44-.65s-.85.8-.85,1.16v3.37Z"/>
  <path d="M179.85,87.2l.96-.68.04-4.65-1-.62,2.24-.48.02,5.27c0,.31.46.68.87,1.15l-3.14.02Z"/>
  <path d="M203.42,87.24l.9-.89.05-4.43-.8-.7,2.04-.41v5.38c0,.28.61.69.87.96l-3.06.1Z"/>
  <circle cx="204.82" cy="78.64" r=".79"/>
  <circle cx="181.4" cy="78.61" r=".78"/>
  <path d="M195.63,78.4l-1.95,1.22c-.09-.67.98-1.83,1.92-2.03.16-.03.18.71.02.8Z"/>
  <path class="st0" d="M309.63,131.64c-2.29,1.08-5.19.63-7.05-.97-4.25-3.66-4.43-12.76-2.23-17.78,1.61-3.67,5.82-5.15,9.08-2.89,4.91,3.42,5.53,11.2,4.09,16.47-.58,2.12-1.79,4.17-3.89,5.16Z"/>
  <path class="st0" d="M173.88,129.82c-1.14.34-2.36.36-3.13-.48-1.28-1.41-1.25-3.53,0-5.02,1.78-2.14,4.32-3.22,7.2-3.59l.04,4.65c-.74,2-2.03,3.64-4.1,4.45Z"/>
  <path class="st0" d="M238.94,175.45c-1.11-.06-2.22-.98-2.8-1.84.35-2.38.83-4.58,1.57-6.82.64-1.95,3.14-6.11,5.29-5.22,3.31,1.37.44,14.13-4.06,13.88Z"/>
  <path class="st0" d="M276.92,174.15c-.41.33-1.34.51-1.67.33s-.73-.9-.77-1.37c-.57-6.62,5.4-14.38,8.27-11.87.43.38.53,1.28.41,2-.74,4.32-2.72,8.12-6.24,10.91Z"/>
  <path class="st0" d="M145.66,141.52c.93,3.44-.92,8.56-3.48,8.34-2.23-.19-2.24-5.07.47-8.54.27-.34,1.1-.62,1.49-.67.44-.06,1.37.32,1.52.88Z"/>
  <path class="st0" d="M135.35,141.09c1.01,1.36-2.2,8.7-4.26,8.22-1.79-.42-.26-7.29,2.87-8.49.34-.13,1.19,0,1.4.27Z"/>
  <path class="st0" d="M257.13,160.88c4.01,1.27.85,15.87-4.09,14.54-2.83-.76-2.41-5.49-1.8-7.94.67-2.69,2.55-7.66,5.89-6.61Z"/>
  <path class="st0" d="M164.44,162.33c1.86,4.89-1.17,14.23-5.45,13.08s-1.94-12.46,2.21-14.43c1.38-.66,2.73,0,3.24,1.35Z"/>
  <path class="st0" d="M325.11,160.95c3.4,1.56,1.93,13.25-2.8,14.39s-4.37-8.19-.81-13.08c.82-1.13,2.28-1.93,3.61-1.32Z"/>
  <path class="st0" d="M204.36,161.06c2.31,2.38-3.25,5.96-5.92,6.3-.03-2.04,3.84-8.44,5.92-6.3Z"/>
  <path class="st0" d="M312.32,165.23c-1.55,1.11-3.14,1.64-5.05,2.24.49-2.33,1.62-4.36,3.43-5.93.76-.66,2.52-1.33,3.14-.33.84,1.33-.27,3.13-1.52,4.03Z"/>
  <path class="st0" d="M144.78,83.34c-.67.78-1.71,1.4-2.62,1.36-.99-.04-2.39-.34-2.88-1.36-1.31-2.74-.92-6.11,1.07-8.42,1.1-1.27,3.26-1.47,4.6-.56,2.29,1.57,2.02,6.4-.17,8.97Z"/>
  <path class="st0" d="M193.17,86.31c-.72-.51-.3-1.58.31-1.8l1.53-.56c.01.76,0,1.51-.18,1.97-.16.43-1.27.68-1.67.39Z"/>
  <path class="st0" d="M209.97,86.77c-1.61-1.09-1.63-3.09-1.03-4.68.21-.55,1.24-1.12,1.72-.87,2.06,1.09,1.76,4.22.86,5.27-.24.28-1.2.51-1.55.28Z"/>
  <path class="st0" d="M166.46,83.07l-2.87-.07c.26-.76.59-1.35,1.25-1.74.29-.17,1.26.14,1.34.47.1.39.2.9.28,1.34Z"/>
</svg>