<?xml version="1.0" encoding="utf-8"?>
<!-- Generator: Adobe Illustrator 28.2.0, SVG Export Plug-In . SVG Version: 6.00 Build 0)  -->
<svg version="1.1" id="Camada_1" xmlns="http://www.w3.org/2000/svg" xmlns:xlink="http://www.w3.org/1999/xlink" x="0px" y="0px"
	 viewBox="0 0 2000 364.7" style="enable-background:new 0 0 2000 364.7;" xml:space="preserve">
<style type="text/css">
	.st0{fill:#FFFFFF;}
	.st1{fill:#F4BEBE;}
	.st2{fill:#00523C;}
	.st3{fill:#F0F0FF;}
	.st4{fill:#302A66;}
	.st5{fill:#B10000;}
	.st6{fill:#F44F21;}
</style>
<g>
	<path class="st5" d="M1894.9,127.7v-0.9h101.3c0-63.9-51.7-115.7-115.5-115.7h-115.5c-63.8,0-115.5,51.8-115.5,115.7
		c0,58.5,43.3,106.8,99.5,114.6v1.1h-99.5c0,63.9,51.7,115.7,115.5,115.7h115.5c63.8,0,115.5-51.8,115.5-115.7
		C1996.2,183.5,1952,134.8,1894.9,127.7z"/>
	<path class="st5" d="M1613.3,11.1h-231c-63.8,0-115.5,51.8-115.5,115.7v115.7c0,63.9,51.7,115.7,115.5,115.7h115.5
		c63.8,0,115.5-51.8,115.5-115.7h-102.6v-0.7c57.7-6.4,102.6-55.5,102.6-115H1512v-0.9C1569.1,118.9,1613.3,70.2,1613.3,11.1z
		 M1485.9,242.6h-103.5V144h1.3c7.7,51.9,49.7,92.6,102.3,98V242.6z"/>
	<path class="st5" d="M1115,11.1H884c0,59.7,45.1,108.8,103.1,115.1v1.4C929.2,133.8,884,182.9,884,242.6
		c0,63.9,51.7,115.7,115.5,115.7c59.2,0,107.9-44.6,114.6-102.1h0.8v102.1h115.5V126.8C1230.5,62.9,1178.8,11.1,1115,11.1z
		 M1115,242.6H999.5V126.8H1115V242.6z"/>
	<path class="st5" d="M732.2,6.4L732.2,6.4c-59.9,0-109.1,45.6-114.9,104h-1.2c-5.9-58.4-55.1-104-114.9-104
		c-63.8,0-115.5,51.8-115.5,115.7v236.2h115.5V135.4h0.8c6.5,57.7,55.4,102.5,114.7,102.5c59.3,0,108.2-44.8,114.7-102.5h0.8v222.9
		h115.5V122.1C847.7,58.2,796,6.4,732.2,6.4z"/>
	<path class="st5" d="M253.8,229L253.8,229c-12,0-23.6,9.5-23.6,26.3c0,16.8,11.6,26.4,23.6,26.4c12,0,23.8-9.8,23.8-26.7
		C277.6,238.1,266,229,253.8,229z"/>
	<path class="st5" d="M234.8,126.8H3.8v231.5h346.5V242.6C350.3,178.7,298.6,126.8,234.8,126.8z M109.5,294.4H60.1v-98.6h16.2v85.6
		h33.3V294.4z M195.3,294.4H179v-11.6c-5,6.7-14.3,12.9-27.3,12.9c-20.2,0-36.5-16.6-36.5-40.7s16.3-40,36.8-40
		c13.2,0,22.2,6.2,27.1,12.6v-11.4h16.3V294.4z M257.4,295.6L257.4,295.6c-12.9,0-22.1-5.8-27.2-12.6v11.4H214v-105h16.2v38.4
		c5.1-7.1,14.9-12.9,27.2-12.9c20.7,0,36.7,15.9,36.7,40S277.9,295.6,257.4,295.6z"/>
	<path class="st5" d="M155.3,229L155.3,229c-12,0-23.6,9.1-23.6,25.9c0,16.9,11.6,26.7,23.6,26.7c12,0,23.6-9.5,23.6-26.4
		C179,238.4,167.5,229,155.3,229z"/>
</g>
</svg>
